<svg version="1.1" xmlns="http://www.w3.org/2000/svg" xmlns:xlink="http://www.w3.org/1999/xlink" width="655.97765" height="515.10661" viewBox="269.90634,104.81842,655.97765,515.10661"><g fill="none" fill-rule="nonzero" stroke="none" stroke-width="1" stroke-linecap="butt" stroke-linejoin="miter" stroke-miterlimit="10" stroke-dasharray="" stroke-dashoffset="0" font-family="none" font-weight="none" font-size="none" text-anchor="none" style="mix-blend-mode: normal"><path d="M815.52714,462.11889h110.35685v-37.92332h-68.6412v-227.5399h-41.71565z" id="CompoundPath 1 1" fill="#557ed0"/><path d="M303.62628,196.15635c0,41.51724 15.04999,71.61724 62.79482,113.65343c37.36551,32.69482 48.78275,52.4155 48.78275,78.88275c0,25.94827 -11.41724,35.28965 -29.58103,35.28965c-18.16379,0 -29.58103,-9.34138 -29.58103,-35.28965v-25.94827h-53.9724v22.31552c0,58.12413 29.06207,91.33792 85.11032,91.33792c56.04827,0 85.11032,-33.21378 85.11032,-91.33792c0,-41.51724 -15.04999,-71.61724 -62.79482,-113.65343c-37.36551,-32.69482 -48.78275,-52.4155 -48.78275,-78.88275c0,-25.94827 10.37931,-35.80862 28.5431,-35.80862c18.16379,0 28.5431,9.86035 28.5431,35.80862v15.04999h53.9724v-11.41724c0,-58.12413 -28.5431,-91.33792 -84.0724,-91.33792c-55.5293,0 -84.0724,33.21378 -84.0724,91.33792z" id="CompoundPath 1 1" fill="#557ed0"/><path d="M526.27123,556.59455h35.14885v-223.6745h-35.14885z" id="CompoundPath 1 1" fill="#557ed0"/><path d="M619.85597,128.55429v34.06096h67.78131l-71.18741,170.98602v33.37974h109.67629v-34.06096h-71.18741l71.18741,-170.98602v-33.37974z" id="CompoundPath 1 1" fill="#557ed0"/><path d="M701.18887,430.67624h59.92878v-31.54147h-94.62441v220.79026h94.62441v-31.54147h-59.92878v-64.66h47.62761v-31.54147h-47.62761z" id="CompoundPath 1 1" fill="#557ed0"/><path d="M783.36408,462.11889h110.35685v-37.92332h-68.6412v-227.5399h-41.71565z" id="CompoundPath 1" fill="#ff8353"/><path d="M271.46323,196.15634c0,41.51724 15.04999,71.61724 62.79482,113.65343c37.36551,32.69482 48.78275,52.4155 48.78275,78.88275c0,25.94827 -11.41724,35.28965 -29.58103,35.28965c-18.16379,0 -29.58103,-9.34138 -29.58103,-35.28965v-25.94827h-53.9724v22.31552c0,58.12413 29.06207,91.33792 85.11032,91.33792c56.04827,0 85.11032,-33.21378 85.11032,-91.33792c0,-41.51724 -15.04999,-71.61724 -62.79482,-113.65343c-37.36551,-32.69482 -48.78275,-52.4155 -48.78275,-78.88275c0,-25.94827 10.37931,-35.80862 28.5431,-35.80862c18.16379,0 28.5431,9.86035 28.5431,35.80862v15.04999h53.9724v-11.41724c0,-58.12413 -28.5431,-91.33792 -84.0724,-91.33792c-55.5293,0 -84.0724,33.21378 -84.0724,91.33792z" id="CompoundPath 1" fill="#ffaae2"/><path d="M494.10817,556.59454h35.14885v-223.6745h-35.14885z" id="CompoundPath 1" fill="#aed864"/><path d="M587.69292,128.55428v34.06096h67.78131l-71.18741,170.98602v33.37974h109.67629v-34.06096h-71.18741l71.18741,-170.98602v-33.37974z" id="CompoundPath 1" fill="#ffd14d"/><path d="M669.02582,430.67624h59.92878v-31.54147h-94.62441v220.79026h94.62441v-31.54147h-59.92878v-64.66h47.62761v-31.54147h-47.62761z" id="CompoundPath 1" fill="#5fdaff"/><path d="M783.36408,462.11889h110.35685v-37.92332h-68.6412v-227.5399h-41.71565z" id="Path 1" fill="#ff8353"/><path d="M271.46323,196.15634c0,41.51724 15.04999,71.61724 62.79482,113.65343c37.36551,32.69482 48.78275,52.4155 48.78275,78.88275c0,25.94827 -11.41724,35.28965 -29.58103,35.28965c-18.16379,0 -29.58103,-9.34138 -29.58103,-35.28965v-25.94827h-53.9724v22.31552c0,58.12413 29.06207,91.33792 85.11032,91.33792c56.04827,0 85.11032,-33.21378 85.11032,-91.33792c0,-41.51724 -15.04999,-71.61724 -62.79482,-113.65343c-37.36551,-32.69482 -48.78275,-52.4155 -48.78275,-78.88275c0,-25.94827 10.37931,-35.80862 28.5431,-35.80862c18.16379,0 28.5431,9.86035 28.5431,35.80862v15.04999h53.9724v-11.41724c0,-58.12413 -28.5431,-91.33792 -84.0724,-91.33792c-55.5293,0 -84.0724,33.21378 -84.0724,91.33792z" id="Path 1" fill="#ffaae2"/><path d="M494.10817,556.59454h35.14885v-223.6745h-35.14885z" id="Path 1" fill="#aed864"/><path d="M587.69292,128.55428v34.06096h67.78131l-71.18741,170.98602v33.37974h109.67629v-34.06096h-71.18741l71.18741,-170.98602v-33.37974z" id="Path 1" fill="#ffd14d"/><path d="M669.02582,430.67624h59.92878v-31.54147h-94.62441v220.79026h94.62441v-31.54147h-59.92878v-64.66h47.62761v-31.54147h-47.62761z" id="Path 1" fill="#5fdaff"/></g></svg>